<?xml version="1.0" encoding="utf-8"?>
<COLLADA xmlns="http://www.collada.org/2005/11/COLLADASchema" version="1.4.1">
  <asset>
    <contributor>
      <author>Blender User</author>
      <authoring_tool>Blender 2.76.0 commit date:2015-11-03, commit time:10:56, hash:f337fea</authoring_tool>
    </contributor>
    <created>2016-03-22T13:09:17</created>
    <modified>2016-03-22T13:09:17</modified>
    <unit name="meter" meter="1"/>
    <up_axis>Z_UP</up_axis>
  </asset>
  <library_images>
    <image id="img-outer-texture" name="shape-outer-texture">
      <init_from>shape-outer-texture.png</init_from>
    </image>
    <image id="img-outer-alpha" name="shape-outer-alpha">
      <init_from>shape-outer-alpha.png</init_from>
    </image>
    <image id="img-inner-texture" name="shape-inner-texture">
      <init_from>shape-inner-texture.png</init_from>
    </image>
    <image id="img-inner-alpha" name="shape-inner-alpha">
      <init_from>shape-inner-alpha.png</init_from>
    </image>
  </library_images>
  <library_effects>
    <effect id="outer-effect">
      <profile_COMMON>
        <newparam sid="outer-tex-surface">
          <surface type="2D"><init_from>img-outer-texture</init_from></surface>
        </newparam>
        <newparam sid="outer-tex-sampler">
          <sampler2D><source>outer-tex-surface</source></sampler2D>
        </newparam>
        <newparam sid="outer-alpha-surface">
          <surface type="2D"><init_from>img-outer-alpha</init_from></surface>
        </newparam>
        <newparam sid="outer-alpha-sampler">
          <sampler2D><source>outer-alpha-surface</source></sampler2D>
        </newparam>
        <technique sid="common">
          <lambert>
            <diffuse>
              <texture texture="outer-tex-sampler" texcoord="UVMap"/>
            </diffuse>
            <transparent opaque="A_ONE">
              <texture texture="outer-alpha-sampler" texcoord="UVMap"/>
            </transparent>
          </lambert>
        </technique>
      </profile_COMMON>
    </effect>
    <effect id="inner-effect">
      <profile_COMMON>
        <newparam sid="inner-tex-surface">
          <surface type="2D"><init_from>img-inner-texture</init_from></surface>
        </newparam>
        <newparam sid="inner-tex-sampler">
          <sampler2D><source>inner-tex-surface</source></sampler2D>
        </newparam>
        <newparam sid="inner-alpha-surface">
          <surface type="2D"><init_from>img-inner-alpha</init_from></surface>
        </newparam>
        <newparam sid="inner-alpha-sampler">
          <sampler2D><source>inner-alpha-surface</source></sampler2D>
        </newparam>
        <technique sid="common">
          <lambert>
            <diffuse>
              <texture texture="inner-tex-sampler" texcoord="UVMap"/>
            </diffuse>
            <transparent opaque="A_ONE">
              <texture texture="inner-alpha-sampler" texcoord="UVMap"/>
            </transparent>
          </lambert>
        </technique>
      </profile_COMMON>
    </effect>
  </library_effects>
  <library_materials>
    <material id="outer-material" name="outer">
      <instance_effect url="#outer-effect"/>
    </material>
    <material id="inner-material" name="inner">
      <instance_effect url="#inner-effect"/>
    </material>
  </library_materials>
  <library_geometries>
    <geometry id="Plain_Truncated_Dodecahedron-mesh" name="Plain Truncated Dodecahedron">
      <mesh>
        <source id="Plain_Truncated_Dodecahedron-mesh-positions">
          <float_array id="Plain_Truncated_Dodecahedron-mesh-positions-array" count="180">0 0.088737 0.5194755 0.5194755 0 0.088737 0.088737 0.5194755 0 0 0.088737 -0.5194755 -0.5194755 0 0.088737 0.088737 -0.5194755 0 0 -0.088737 0.5194755 0.5194755 0 -0.088737 -0.088737 0.5194755 0 0 -0.088737 -0.5194755 -0.5194755 0 -0.088737 -0.088737 -0.5194755 0 0.088737 0.2323165 0.464633 0.464633 0.088737 0.2323165 0.2323165 0.464633 0.088737 0.088737 0.2323165 -0.464633 -0.464633 0.088737 0.2323165 0.2323165 -0.464633 0.088737 0.088737 -0.2323165 0.464633 0.464633 0.088737 -0.2323165 -0.2323165 0.464633 0.088737 0.088737 -0.2323165 -0.464633 -0.464633 0.088737 -0.2323165 -0.2323165 -0.464633 0.088737 -0.088737 0.2323165 0.464633 0.464633 -0.088737 0.2323165 0.2323165 0.464633 -0.088737 -0.088737 0.2323165 -0.464633 -0.464633 -0.088737 0.2323165 0.2323165 -0.464633 -0.088737 -0.088737 -0.2323165 0.464633 0.464633 -0.088737 -0.2323165 -0.2323165 0.464633 -0.088737 -0.088737 -0.2323165 -0.464633 -0.464633 -0.088737 -0.2323165 -0.2323165 -0.464633 -0.088737 0.2323165 0.287159 0.375896 0.375896 0.2323165 0.287159 0.287159 0.375896 0.2323165 0.2323165 0.287159 -0.375896 -0.375896 0.2323165 0.287159 0.287159 -0.375896 0.2323165 0.2323165 -0.287159 0.375896 0.375896 0.2323165 -0.287159 -0.287159 0.375896 0.2323165 0.2323165 -0.287159 -0.375896 -0.375896 0.2323165 -0.287159 -0.287159 -0.375896 0.2323165 -0.2323165 0.287159 0.375896 0.375896 -0.2323165 0.287159 0.287159 0.375896 -0.2323165 -0.2323165 0.287159 -0.375896 -0.375896 -0.2323165 0.287159 0.287159 -0.375896 -0.2323165 -0.2323165 -0.287159 0.375896 0.375896 -0.2323165 -0.287159 -0.287159 0.375896 -0.2323165 -0.2323165 -0.287159 -0.375896 -0.375896 -0.2323165 -0.287159 -0.287159 -0.375896 -0.2323165</float_array>
          <technique_common>
            <accessor source="#Plain_Truncated_Dodecahedron-mesh-positions-array" count="60" stride="3">
              <param name="X" type="float"/>
              <param name="Y" type="float"/>
              <param name="Z" type="float"/>
            </accessor>
          </technique_common>
        </source>
        <source id="Plain_Truncated_Dodecahedron-mesh-normals">
          <float_array id="Plain_Truncated_Dodecahedron-mesh-normals-array" count="96">-0.5257311 -0 0.8506508 0.5257311 -0 0.8506508 0 0.3568221 0.9341724 0.8506508 -0.5257311 -0 0.8506508 0.5257311 -0 0.9341724 0 0.3568221 -0 0.8506508 -0.5257311 -0 0.8506508 0.5257311 0.3568221 0.9341724 0 0.5257311 -0 -0.8506508 -0.5257311 0 -0.8506508 -0 0.3568221 -0.9341724 -0.8506508 0.5257311 -0 -0.8506508 -0.5257311 0 -0.9341724 -0 0.3568221 -0 -0.8506508 0.5257311 0 -0.8506508 -0.5257311 0.3568221 -0.9341724 -0 -0 -0.3568221 0.9341724 0.9341724 -0 -0.3568221 -0.3568221 0.9341724 -0 -0 -0.3568221 -0.9341724 -0.9341724 -0 -0.3568221 -0.3568221 -0.9341724 -0 0.5773503 0.5773503 0.5773503 0.5773503 0.5773503 -0.5773503 -0.5773503 0.5773503 0.5773503 0.5773503 -0.5773503 0.5773503 0.5773503 -0.5773503 -0.5773503 -0.5773503 0.5773503 -0.5773503 -0.5773503 -0.5773503 0.5773503 -0.5773503 -0.5773503 -0.5773503</float_array>
          <technique_common>
            <accessor source="#Plain_Truncated_Dodecahedron-mesh-normals-array" count="32" stride="3">
              <param name="X" type="float"/>
              <param name="Y" type="float"/>
              <param name="Z" type="float"/>
            </accessor>
          </technique_common>
        </source>
        <source id="Plain_Truncated_Dodecahedron-mesh-map-0">
          <float_array id="Plain_Truncated_Dodecahedron-mesh-map-0-array" count="696">0.125 0.7308333 0.185248 0.7504091 0.2224833 0.8016591 0.125 0.7308333 0.2224833 0.8016591 0.2224833 0.8650076 0.125 0.7308333 0.2224833 0.8650076 0.185248 0.9162576 0.125 0.7308333 0.185248 0.9162576 0.125 0.9358333 0.125 0.7308333 0.125 0.9358333 0.06475201 0.9162576 0.125 0.7308333 0.06475201 0.9162576 0.02751671 0.8650076 0.125 0.7308333 0.02751671 0.8650076 0.02751671 0.8016591 0.125 0.7308333 0.02751671 0.8016591 0.06475201 0.7504091 0.375 0.7308333 0.435248 0.7504091 0.4724833 0.8016591 0.375 0.7308333 0.4724833 0.8016591 0.4724833 0.8650076 0.375 0.7308333 0.4724833 0.8650076 0.435248 0.9162576 0.375 0.7308333 0.435248 0.9162576 0.375 0.9358333 0.375 0.7308333 0.375 0.9358333 0.314752 0.9162576 0.375 0.7308333 0.314752 0.9162576 0.2775167 0.8650076 0.375 0.7308333 0.2775167 0.8650076 0.2775167 0.8016591 0.375 0.7308333 0.2775167 0.8016591 0.314752 0.7504091 0.625 0.7308333 0.685248 0.7504091 0.7224833 0.8016591 0.625 0.7308333 0.7224833 0.8016591 0.7224833 0.8650076 0.625 0.7308333 0.7224833 0.8650076 0.685248 0.9162576 0.625 0.7308333 0.685248 0.9162576 0.625 0.9358333 0.625 0.7308333 0.625 0.9358333 0.564752 0.9162576 0.625 0.7308333 0.564752 0.9162576 0.5275167 0.8650076 0.625 0.7308333 0.5275167 0.8650076 0.5275167 0.8016591 0.625 0.7308333 0.5275167 0.8016591 0.564752 0.7504091 0.875 0.7308333 0.935248 0.7504091 0.9724833 0.8016591 0.875 0.7308333 0.9724833 0.8016591 0.9724833 0.8650076 0.875 0.7308333 0.9724833 0.8650076 0.935248 0.9162576 0.875 0.7308333 0.935248 0.9162576 0.875 0.9358333 0.875 0.7308333 0.875 0.9358333 0.814752 0.9162576 0.875 0.7308333 0.814752 0.9162576 0.7775167 0.8650076 0.875 0.7308333 0.7775167 0.8650076 0.7775167 0.8016591 0.875 0.7308333 0.7775167 0.8016591 0.814752 0.7504091 0.125 0.3975 0.185248 0.4170758 0.2224833 0.4683258 0.125 0.3975 0.2224833 0.4683258 0.2224833 0.5316742 0.125 0.3975 0.2224833 0.5316742 0.185248 0.5829242 0.125 0.3975 0.185248 0.5829242 0.125 0.6025 0.125 0.3975 0.125 0.6025 0.06475201 0.5829242 0.125 0.3975 0.06475201 0.5829242 0.02751671 0.5316742 0.125 0.3975 0.02751671 0.5316742 0.02751671 0.4683258 0.125 0.3975 0.02751671 0.4683258 0.06475201 0.4170758 0.375 0.3975 0.435248 0.4170758 0.4724833 0.4683258 0.375 0.3975 0.4724833 0.4683258 0.4724833 0.5316742 0.375 0.3975 0.4724833 0.5316742 0.435248 0.5829242 0.375 0.3975 0.435248 0.5829242 0.375 0.6025 0.375 0.3975 0.375 0.6025 0.314752 0.5829242 0.375 0.3975 0.314752 0.5829242 0.2775167 0.5316742 0.375 0.3975 0.2775167 0.5316742 0.2775167 0.4683258 0.375 0.3975 0.2775167 0.4683258 0.314752 0.4170758 0.625 0.3975 0.685248 0.4170758 0.7224833 0.4683258 0.625 0.3975 0.7224833 0.4683258 0.7224833 0.5316742 0.625 0.3975 0.7224833 0.5316742 0.685248 0.5829242 0.625 0.3975 0.685248 0.5829242 0.625 0.6025 0.625 0.3975 0.625 0.6025 0.564752 0.5829242 0.625 0.3975 0.564752 0.5829242 0.5275167 0.5316742 0.625 0.3975 0.5275167 0.5316742 0.5275167 0.4683258 0.625 0.3975 0.5275167 0.4683258 0.564752 0.4170758 0.875 0.3975 0.935248 0.4170758 0.9724833 0.4683258 0.875 0.3975 0.9724833 0.4683258 0.9724833 0.5316742 0.875 0.3975 0.9724833 0.5316742 0.935248 0.5829242 0.875 0.3975 0.935248 0.5829242 0.875 0.6025 0.875 0.3975 0.875 0.6025 0.814752 0.5829242 0.875 0.3975 0.814752 0.5829242 0.7775167 0.5316742 0.875 0.3975 0.7775167 0.5316742 0.7775167 0.4683258 0.875 0.3975 0.7775167 0.4683258 0.814752 0.4170758 0.125 0.06416667 0.185248 0.08374242 0.2224833 0.1349924 0.125 0.06416667 0.2224833 0.1349924 0.2224833 0.1983409 0.125 0.06416667 0.2224833 0.1983409 0.185248 0.2495909 0.125 0.06416667 0.185248 0.2495909 0.125 0.2691667 0.125 0.06416667 0.125 0.2691667 0.06475201 0.2495909 0.125 0.06416667 0.06475201 0.2495909 0.02751671 0.1983409 0.125 0.06416667 0.02751671 0.1983409 0.02751671 0.1349924 0.125 0.06416667 0.02751671 0.1349924 0.06475201 0.08374242 0.375 0.06416667 0.435248 0.08374242 0.4724833 0.1349924 0.375 0.06416667 0.4724833 0.1349924 0.4724833 0.1983409 0.375 0.06416667 0.4724833 0.1983409 0.435248 0.2495909 0.375 0.06416667 0.435248 0.2495909 0.375 0.2691667 0.375 0.06416667 0.375 0.2691667 0.314752 0.2495909 0.375 0.06416667 0.314752 0.2495909 0.2775167 0.1983409 0.375 0.06416667 0.2775167 0.1983409 0.2775167 0.1349924 0.375 0.06416667 0.2775167 0.1349924 0.314752 0.08374242 0.625 0.06416667 0.685248 0.08374242 0.7224833 0.1349924 0.625 0.06416667 0.7224833 0.1349924 0.7224833 0.1983409 0.625 0.06416667 0.7224833 0.1983409 0.685248 0.2495909 0.625 0.06416667 0.685248 0.2495909 0.625 0.2691667 0.625 0.06416667 0.625 0.2691667 0.564752 0.2495909 0.625 0.06416667 0.564752 0.2495909 0.5275167 0.1983409 0.625 0.06416667 0.5275167 0.1983409 0.5275167 0.1349924 0.625 0.06416667 0.5275167 0.1349924 0.564752 0.08374242 0.875 0.06416667 0.935248 0.08374242 0.9724833 0.1349924 0.875 0.06416667 0.9724833 0.1349924 0.9724833 0.1983409 0.875 0.06416667 0.9724833 0.1983409 0.935248 0.2495909 0.875 0.06416667 0.935248 0.2495909 0.875 0.2691667 0.875 0.06416667 0.875 0.2691667 0.814752 0.2495909 0.875 0.06416667 0.814752 0.2495909 0.7775167 0.1983409 0.875 0.06416667 0.7775167 0.1983409 0.7775167 0.1349924 0.875 0.06416667 0.7775167 0.1349924 0.814752 0.08374242 0.09960938 0.8330078 0.1733398 0.9609375 0.02587891 0.9609375 0.2996094 0.8330078 0.3733398 0.9609375 0.2258789 0.9609375 0.4996094 0.8330078 0.5733398 0.9609375 0.4258789 0.9609375 0.6996094 0.8330078 0.7733398 0.9609375 0.6258789 0.9609375 0.8996094 0.8330078 0.9733398 0.9609375 0.8258789 0.9609375 0.09960938 0.5830078 0.1733398 0.7109375 0.02587891 0.7109375 0.2996094 0.5830078 0.3733398 0.7109375 0.2258789 0.7109375 0.4996094 0.5830078 0.5733398 0.7109375 0.4258789 0.7109375 0.6996094 0.5830078 0.7733398 0.7109375 0.6258789 0.7109375 0.8996094 0.5830078 0.9733398 0.7109375 0.8258789 0.7109375 0.09960938 0.3330078 0.1733398 0.4609375 0.02587891 0.4609375 0.2996094 0.3330078 0.3733398 0.4609375 0.2258789 0.4609375 0.4996094 0.3330078 0.5733398 0.4609375 0.4258789 0.4609375 0.6996094 0.3330078 0.7733398 0.4609375 0.6258789 0.4609375 0.8996094 0.3330078 0.9733398 0.4609375 0.8258789 0.4609375 0.09960938 0.08300781 0.1733398 0.2109375 0.02587891 0.2109375 0.2996094 0.08300781 0.3733398 0.2109375 0.2258789 0.2109375 0.4996094 0.08300781 0.5733398 0.2109375 0.4258789 0.2109375 0.6996094 0.08300781 0.7733398 0.2109375 0.6258789 0.2109375 0.8996094 0.08300781 0.9733398 0.2109375 0.8258789 0.2109375</float_array>
          <technique_common>
            <accessor source="#Plain_Truncated_Dodecahedron-mesh-map-0-array" count="348" stride="2">
              <param name="S" type="float"/>
              <param name="T" type="float"/>
            </accessor>
          </technique_common>
        </source>
        <vertices id="Plain_Truncated_Dodecahedron-mesh-vertices">
          <input semantic="POSITION" source="#Plain_Truncated_Dodecahedron-mesh-positions"/>
        </vertices>
        <polylist count="20" material="outer">
          <input semantic="VERTEX"   source="#Plain_Truncated_Dodecahedron-mesh-vertices" offset="0"/>
          <input semantic="NORMAL"   source="#Plain_Truncated_Dodecahedron-mesh-normals"  offset="1"/>
          <input semantic="TEXCOORD" source="#Plain_Truncated_Dodecahedron-mesh-map-0"    offset="2" set="0"/>
          <vcount>3 3 3 3 3 3 3 3 3 3 3 3 3 3 3 3 3 3 3 3</vcount>
          <p>12 2 288 24 2 290 0 2 289 13 5 291 25 5 293 1 5 292 14 8 294 26 8 296 2 8 295 3 11 297 27 11 299 15 11 298 4 14 300 28 14 302 16 14 301 5 17 303 29 17 305 17 17 304 6 18 306 30 18 308 18 18 307 7 19 309 31 19 311 19 19 310 8 20 312 32 20 314 20 20 313 21 21 315 33 21 317 9 21 316 22 22 318 34 22 320 10 22 319 23 23 321 35 23 323 11 23 322 37 24 324 38 24 326 36 24 325 39 25 327 50 25 329 43 25 328 40 26 330 48 26 332 44 26 331 41 27 333 49 27 335 42 27 334 45 28 336 55 28 338 53 28 337 46 29 339 56 29 341 51 29 340 47 30 342 54 30 344 52 30 343 57 31 345 59 31 347 58 31 346</p>
        </polylist>
        <polylist count="96" material="inner">
          <input semantic="VERTEX"   source="#Plain_Truncated_Dodecahedron-mesh-vertices" offset="0"/>
          <input semantic="NORMAL"   source="#Plain_Truncated_Dodecahedron-mesh-normals"  offset="1"/>
          <input semantic="TEXCOORD" source="#Plain_Truncated_Dodecahedron-mesh-map-0"    offset="2" set="0"/>
          <vcount>3 3 3 3 3 3 3 3 3 3 3 3 3 3 3 3 3 3 3 3 3 3 3 3 3 3 3 3 3 3 3 3 3 3 3 3 3 3 3 3 3 3 3 3 3 3 3 3 3 3 3 3 3 3 3 3 3 3 3 3 3 3 3 3 3 3 3 3 3 3 3 3 3 3 3 3 3 3 3 3 3 3 3 3 3 3 3 3 3 3 3 3 3 3 3 3</vcount>
          <p>0 0 0 30 0 2 6 0 1 0 0 3 54 0 5 30 0 4 0 0 6 52 0 8 54 0 7 0 0 9 28 0 11 52 0 10 0 0 12 16 0 14 28 0 13 0 0 15 40 0 17 16 0 16 0 0 18 48 0 20 40 0 19 0 0 21 24 0 23 48 0 22 6 1 24 12 1 26 0 1 25 6 1 27 36 1 29 12 1 28 6 1 30 37 1 32 36 1 31 6 1 33 13 1 35 37 1 34 6 1 36 25 1 38 13 1 37 6 1 39 49 1 41 25 1 40 6 1 42 42 1 44 49 1 43 6 1 45 18 1 47 42 1 46 1 3 48 31 3 50 7 3 49 1 3 51 55 3 53 31 3 52 1 3 54 53 3 56 55 3 55 1 3 57 29 3 59 53 3 58 1 3 60 17 3 62 29 3 61 1 3 63 41 3 65 17 3 64 1 3 66 49 3 68 41 3 67 1 3 69 25 3 71 49 3 70 7 4 72 13 4 74 1 4 73 7 4 75 37 4 77 13 4 76 7 4 78 38 4 80 37 4 79 7 4 81 14 4 83 38 4 82 7 4 84 26 4 86 14 4 85 7 4 87 50 4 89 26 4 88 7 4 90 43 4 92 50 4 91 7 4 93 19 4 95 43 4 94 2 6 96 32 6 98 8 6 97 2 6 99 56 6 101 32 6 100 2 6 102 51 6 104 56 6 103 2 6 105 27 6 107 51 6 106 2 6 108 15 6 110 27 6 109 2 6 111 39 6 113 15 6 112 2 6 114 50 6 116 39 6 115 2 6 117 26 6 119 50 6 118 8 7 120 14 7 122 2 7 121 8 7 123 38 7 125 14 7 124 8 7 126 36 7 128 38 7 127 8 7 129 12 7 131 36 7 130 8 7 132 24 7 134 12 7 133 8 7 135 48 7 137 24 7 136 8 7 138 44 7 140 48 7 139 8 7 141 20 7 143 44 7 142 3 9 144 21 9 146 9 9 145 3 9 147 45 9 149 21 9 148 3 9 150 55 9 152 45 9 151 3 9 153 31 9 155 55 9 154 3 9 156 19 9 158 31 9 157 3 9 159 43 9 161 19 9 160 3 9 162 39 9 164 43 9 163 3 9 165 15 9 167 39 9 166 9 10 168 27 10 170 3 10 169 9 10 171 51 10 173 27 10 172 9 10 174 46 10 176 51 10 175 9 10 177 22 10 179 46 10 178 9 10 180 34 10 182 22 10 181 9 10 183 58 10 185 34 10 184 9 10 186 57 10 188 58 10 187 9 10 189 33 10 191 57 10 190 4 12 192 22 12 194 10 12 193 4 12 195 46 12 197 22 12 196 4 12 198 56 12 200 46 12 199 4 12 201 32 12 203 56 12 202 4 12 204 20 12 206 32 12 205 4 12 207 44 12 209 20 12 208 4 12 210 40 12 212 44 12 211 4 12 213 16 12 215 40 12 214 10 13 216 28 13 218 4 13 217 10 13 219 52 13 221 28 13 220 10 13 222 47 13 224 52 13 223 10 13 225 23 13 227 47 13 226 10 13 228 35 13 230 23 13 229 10 13 231 59 13 233 35 13 232 10 13 234 58 13 236 59 13 235 10 13 237 34 13 239 58 13 238 5 15 240 23 15 242 11 15 241 5 15 243 47 15 245 23 15 244 5 15 246 54 15 248 47 15 247 5 15 249 30 15 251 54 15 250 5 15 252 18 15 254 30 15 253 5 15 255 42 15 257 18 15 256 5 15 258 41 15 260 42 15 259 5 15 261 17 15 263 41 15 262 11 16 264 29 16 266 5 16 265 11 16 267 53 16 269 29 16 268 11 16 270 45 16 272 53 16 271 11 16 273 21 16 275 45 16 274 11 16 276 33 16 278 21 16 277 11 16 279 57 16 281 33 16 280 11 16 282 59 16 284 57 16 283 11 16 285 35 16 287 59 16 286</p>
        </polylist>
      </mesh>
    </geometry>
  </library_geometries>
  <library_controllers/>
  <library_visual_scenes>
    <visual_scene id="Scene" name="Scene">
      <node id="Plain_Truncated_Dodecahedron" name="Plain_Truncated_Dodecahedron" type="NODE">
        <matrix sid="transform">0.9487666 0 0 0 0 0.9487666 0 0 0 0 0.9487666 0 0 0 0 1</matrix>
        <instance_geometry url="#Plain_Truncated_Dodecahedron-mesh" name="Plain_Truncated_Dodecahedron">
          <bind_material>
            <technique_common>
              <instance_material symbol="outer" target="#outer-material">
                <bind_vertex_input semantic="UVMap" input_semantic="TEXCOORD" input_set="0"/>
              </instance_material>
              <instance_material symbol="inner" target="#inner-material">
                <bind_vertex_input semantic="UVMap" input_semantic="TEXCOORD" input_set="0"/>
              </instance_material>
            </technique_common>
          </bind_material>
        </instance_geometry>
      </node>
    </visual_scene>
  </library_visual_scenes>
  <scene>
    <instance_visual_scene url="#Scene"/>
  </scene>
</COLLADA>